<svg width="1024" height="1024" viewBox="0 0 1024 1024" fill="none" xmlns="http://www.w3.org/2000/svg">
<rect width="1024" height="1024" rx="512" fill="url(#paint0_linear_3908_2)"/>
<path fill-rule="evenodd" clip-rule="evenodd" d="M500.324 227.951C503.968 226.193 507.962 225.279 512.008 225.279C516.055 225.279 520.049 226.193 523.693 227.951L783.54 353.395C789.688 356.408 794.455 361.653 796.867 368.061C799.28 374.468 799.157 381.555 796.523 387.874C793.889 394.194 788.943 399.27 782.694 402.068C773.63 406.125 762.896 413.292 762.896 423.222V735.997C762.896 740.946 766.907 744.958 771.856 744.958C778.985 744.958 785.822 747.79 790.863 752.831C795.905 757.872 798.737 764.709 798.737 771.839C798.737 778.968 795.905 785.805 790.863 790.846C785.822 795.887 778.985 798.719 771.856 798.719H252.161C245.032 798.719 238.195 795.887 233.153 790.846C228.112 785.805 225.28 778.968 225.28 771.839C225.28 764.709 228.112 757.872 233.153 752.831C238.195 747.79 245.032 744.958 252.161 744.958C257.11 744.958 261.121 740.946 261.121 735.998V423.222C261.121 413.292 250.387 406.125 241.323 402.068C235.074 399.27 230.128 394.194 227.494 387.874C224.86 381.555 224.737 374.468 227.15 368.061C229.562 361.653 234.329 356.408 240.477 353.395L500.324 227.951ZM547.849 368.627C547.849 378.133 544.073 387.249 537.352 393.971C530.63 400.692 521.514 404.468 512.008 404.468C502.503 404.468 493.387 400.692 486.665 393.971C479.944 387.249 476.167 378.133 476.167 368.627C476.167 359.122 479.944 350.005 486.665 343.284C493.387 336.562 502.503 332.786 512.008 332.786C521.514 332.786 530.63 336.562 537.352 343.284C544.073 350.005 547.849 359.122 547.849 368.627ZM422.406 503.031C422.406 495.902 419.574 489.065 414.533 484.024C409.492 478.982 402.654 476.15 395.525 476.15C388.396 476.15 381.559 478.982 376.518 484.024C371.476 489.065 368.644 495.902 368.644 503.031V700.157C368.644 707.286 371.476 714.123 376.518 719.164C381.559 724.205 388.396 727.037 395.525 727.037C402.654 727.037 409.492 724.205 414.533 719.164C419.574 714.123 422.406 707.286 422.406 700.157V503.031ZM538.889 503.031C538.889 495.902 536.057 489.065 531.016 484.024C525.975 478.982 519.138 476.15 512.008 476.15C504.879 476.15 498.042 478.982 493.001 484.024C487.96 489.065 485.128 495.902 485.128 503.031V700.157C485.128 707.286 487.96 714.123 493.001 719.164C498.042 724.205 504.879 727.037 512.008 727.037C519.138 727.037 525.975 724.205 531.016 719.164C536.057 714.123 538.889 707.286 538.889 700.157V503.031ZM655.372 503.031C655.372 495.902 652.54 489.065 647.499 484.024C642.458 478.982 635.621 476.15 628.492 476.15C621.363 476.15 614.525 478.982 609.484 484.024C604.443 489.065 601.611 495.902 601.611 503.031V700.157C601.611 707.286 604.443 714.123 609.484 719.164C614.525 724.205 621.363 727.037 628.492 727.037C635.621 727.037 642.458 724.205 647.499 719.164C652.54 714.123 655.372 707.286 655.372 700.157V503.031Z" fill="white" fill-opacity="0.9"/>
<defs>
<linearGradient id="paint0_linear_3908_2" x1="69.632" y1="923.648" x2="204.8" y2="-389.12" gradientUnits="userSpaceOnUse">
<stop stop-color="#2563EB"/>
</linearGradient>
</defs>
</svg>
